<svg viewBox="0 0 1800 1800" xmlns:xl="http://www.w3.org/1999/xlink" xmlns="http://www.w3.org/2000/svg">
	<path id="a" fill="#589" d="M504.2 1106.188c37.3-72.3 74.5-144.6 111.7-216.9H512.3c-24 46.6-48.1 93.3-72.1 139.9-38.8-46.6-77.6-93.3-116.4-139.9H220.2l180.3 216.9c-36.5 70.8-73 141.7-109.5 212.5h103.6c23.3-45.2 46.6-90.4 69.8-135.5 37.6 45.2 75.1 90.4 112.7 135.5h103.6c-58.7-70.8-117.6-141.6-176.5-212.5zm-342.7 205 .3 2.3.7 2.6c3.8 15.1 8.9 59.5-12 86.3-6.2 8-14.8 14.5-25.6 19.3l-62.5 100.8c36.9 0 69.4-5.8 96.5-17.4 25.9-11 47.2-27.2 63.2-48.1 22.2-28.9 33.9-66.6 33.8-109.1 0-24.8-4-44.6-5.7-52l-40.9-273.3h.1v-90.2H8.5v90.2h109.8Zm585.5-414.4-.3-2.3-.7-2.6c-3.8-15.1-8.9-59.5 12-86.3 6.2-8 14.8-14.5 25.6-19.3l62.5-100.7c-36.9 0-69.4 5.8-96.5 17.4-25.9 11-47.2 27.2-63.2 48.1-22.2 28.9-33.9 66.6-33.8 109.1 0 24.8 4 44.6 5.7 52l40.9 273.3h-.1v90.2H900v-90.2H790.2Z"/>
	<path fill="#e70" d="M907.457 706.898c13.172-14.83 20.372-28.897 23.434-45.785 3.595-19.824-2.397-37.739-19.897-59.494-23.147-28.773-35.348-50.39-41.882-74.206-3.23-11.776-3.766-17.526-3.03-32.502 1.425-28.945 11.16-50.751 33.672-75.416 34.888-38.226 94.472-72.238 170.211-97.161 13.349-4.393 24.764-7.987 25.368-7.987.604 0-10.345 6.924-24.331 15.386-77.437 46.851-125.04 87.393-140.162 119.369-13.552 28.656-7.356 52.051 26.528 100.156 20.504 29.111 26.181 42.126 26.181 60.022 0 33.062-27.107 69.586-72.567 97.777l-8.164 5.062zm-80.992-64.637c-75.9-73.895-102.344-115.079-102.344-159.385 0-28 11.82-50.882 43.144-83.517 17.086-17.801 30.805-29.434 92.013-78.025 67.881-53.888 99.235-93.253 111.772-140.33 4.784-17.964 5.304-57.08.988-74.325-2.709-10.823-2.709-10.827.802-6.35 7.1 9.053 18.114 33.882 20.9 47.113 3.697 17.559 2.43 46.54-2.84 64.964-9.012 31.5-28.781 64.856-57.73 97.406-19.631 22.073-32.978 34.62-66.384 62.41-59.263 49.298-83.292 82.58-88.677 122.828-4.428 33.096 7.148 63.893 43.91 116.824 25.603 36.863 42.067 63.496 39.253 63.496-.44 0-16.104-14.899-34.807-33.109z"/>
	<use xl:href="#a" transform="matrix(-1 0 0 1 1800 0)"/>
	<path stroke="#589" stroke-width="2" d="M900 1185.488v90.2"/>
</svg>
